<svg width="11" height="19" viewBox="0 0 11 19" fill="none" xmlns="http://www.w3.org/2000/svg">
    <path d="M10.446 15.8586C10.6807 16.1158 10.8111 16.4541 10.7981 16.806C10.7981 17.1579 10.6677 17.4827 10.42 17.7398C10.1853 17.9835 9.85935 18.1323 9.52036 18.1323C9.18138 18.1323 8.85543 18.0105 8.60772 17.7669L1.22832 10.1068C1.11098 9.98496 1.01971 9.83608 0.954522 9.67368C0.889333 9.51127 0.85022 9.33533 0.85022 9.15939C0.85022 8.98345 0.889333 8.80751 0.954522 8.63157C1.01971 8.46917 1.11098 8.32029 1.22832 8.19849L8.60772 0.538339C8.72506 0.416535 8.86847 0.308264 9.02493 0.240595C9.19442 0.172926 9.36391 0.132324 9.5334 0.132324C9.70289 0.132324 9.88542 0.159392 10.0419 0.227061C10.1983 0.29473 10.3417 0.403001 10.4721 0.524805C10.5895 0.64661 10.6807 0.809016 10.7459 0.971422C10.8241 1.13383 10.8502 1.30977 10.8502 1.49924C10.8502 1.67518 10.8111 1.85112 10.7459 2.01353C10.6807 2.17593 10.5764 2.32481 10.446 2.46014L3.99233 9.15939L5.21789 10.418L10.446 15.8586Z" fill="#181725"/>
</svg>
