<svg width="18" height="18" viewBox="0 0 18 18" fill="none" xmlns="http://www.w3.org/2000/svg">
    <path d="M17.4569 9.08038C17.4569 9.45621 17.3128 9.81951 17.0433 10.0826C16.7802 10.3519 16.4167 10.5023 16.0408 10.5023H10.3762V16.1648C10.3762 16.5406 10.2258 16.9039 9.95636 17.167C9.69318 17.4301 9.33601 17.5804 8.96004 17.5804C8.58407 17.5804 8.22064 17.4301 7.95746 17.167C7.68802 16.9039 7.53763 16.5406 7.53763 16.1648V10.5023H1.87305C1.49709 10.5023 1.13365 10.3519 0.870474 10.0826C0.607296 9.81951 0.456909 9.45621 0.456909 9.08038C0.456909 8.70455 0.607296 8.34752 0.870474 8.07817C1.13365 7.81509 1.49709 7.66476 1.87305 7.66476H7.53763V2.00227C7.53763 1.62644 7.68802 1.26314 7.95746 1.00006C8.22064 0.730715 8.58407 0.580383 8.96004 0.580383C9.33601 0.580383 9.69318 0.730715 9.95636 1.00006C10.2258 1.26314 10.3762 1.62644 10.3762 2.00227V7.66476H16.0408C16.4167 7.66476 16.7802 7.81509 17.0433 8.07817C17.3128 8.34752 17.4569 8.70455 17.4569 9.08038Z" fill="white"/>
</svg>
